<svg xmlns="http://www.w3.org/2000/svg" viewBox="0 0 487.654 95.13"><path d="M205.731 67.731l-2.146-.707c6.966-.289 13.992-.686 20.955-.627l87.266-.2 60.856.237c-3.49-1.163-8.186.474-10.819-1.195 11.254 0 22.453.39 33.7 0-10-.923-20.311-.418-30.363-1.3l-.265-.484c6.81 0 13.734-.641 20.4-.021 3.027-.857 6.953 1.32 8.743-1.1-.975-.188-2.835.533-2.947-.582 9.227-.728 17.918.954 27.159.23-3.508.244-6.935-1.435-9.2-.658-1.588-.2-4.772-.784-7.074.056-.132-.247-.442-.54.038-.787l-1.658.251.258.481c-4.309-.5-2.734.421-6.211-.86-19.684-.345-39.27-.791-58.929-.8l-2.128-.7c19.959-.7 39.552.481 59.494.188-.606-.209-1.289-.362-1.306-.839 2.616-.8 6.416 1.867 7.607.136 21.387-.233 42.844 1.707 63.841.808-2.348-.505-5.563.561-7.05-.731l.258.484c-3.7-.3-8.28.317-11.1-.9l-.564.61-13.86-.192c-2.766-.794-4.911-.38-7.552-.934-1.853 1.6-5.827.345-7.907.188-2.229.122-5.2-1.062-6.531.226-2.428-1.411-6.625.192-8.673-.495-.721.028-1.47.442-2.184.08-8.433-1.331-19.517.1-27.9-1.675 5.086-1.045 10.561.975 14.7-.711.411 1.069 2.9 1.028 3.8.456l.244.484c3.859-1.379 10.216.463 11.167-.686l-30.65-.982-3.2-1.066c11.446-.463 23.265.272 34.293-.606l-40.733-.735-2.142-.721c4.2-.6 8.611.669 12.533-.627 12.5 1.021 26.974.557 38.009.627l-40.959-1.219-79.582-1.247-2.128-.711c9.433-.463 19.231.2 28.284-.2l-.251-.481 3.006-.206 125.456 1.714a1.869 1.869 0 0 1-.624-.453.447.447 0 0 1 .094.286c-4.441-.286-12.571.021-13.278-.815l.244.484c-1-.209-2.846.512-2.971-.592l.3-.307c-8.611-.063-18.82-.655-25.814-.178l.244.484-.815.132c-.624-.348-2.02-.348-1.846-1.021-19-.317-39.4-1.163-59.184-1.282l-2.146-.711c17.935-.77 35.884.8 53.266.118-1.606-.54-4.145.286-4.852-.815 3.149.24 5.918-1.442 8.133.3l.578-.617c10.676.094 23 .32 32.056.272-1.167-.261-3.194.4-3.5-.78-34.808-1.035-69.668-1.428-104.518-2.33l-2.644-.9c39.646-.216 78.993.725 118.388 1.763l10.363-.538-7.074.035c-14.271-.864-28.58-.951-42.865-1.446l-93.946-1.637c-3.6-.129-8.105.641-10.85-.4 34.491-1.076 68.648-.707 102.686.547l4.142-.637c7.28.944 15.26.2 22.474.582-.087-.418-.711-.54-1.289-.728l-84.131-2.372-.244-.491c1.8.07.944-.749 2.233-.857.61.077.63.415.766.658 1.707.167 4.406.658 5.465-.592.129 1.115 3.588.934 2.968.592l-.24-.477 3.529-.021c3.633 2.477 3.138-1.09 7.607.129 2.8-.613 5.935.3 7.855.613l-1.658.244c5.538-.164 13.055.937 16.636-.474 8.409-.272 17.239.669 25.25 0-29.057-.728-58.017-2.02-87.14-2.17l-2.128-.707c15.2-.484 31.851.725 45.369.275l-.031-.348-16.563-.293.031.338c-9.46-.878-19.834.2-28.434-1.846q23.784.094 47.56.206c-1.522-.509-3.1-.223-4.626-.331-6.886.1-14.121-1.163-20.621-.463-5.8-1.184-12.585-.307-17.59-1.439l.819-.129c-.62-.212-1.282-.362-1.306-.846 9.819-1.724 20.025.463 28.834-.808l-37.431-1.254-2.132-.707c26.709-.78 52.026 1.3 78.247.421l-.035-.345-26.873-.536.038.355-2.693-.892 6.552-.226-24.174-.432-.5-.972c8.948-.557 19.363.578 26.65.063l-.045-.355-69.778-1.211.038.345-2.163-.718c2.17.331 4.553-.947 6.538-.223.32-.564 1.836-1.327.913-1.689-67.453-.975-134.359-1.62-202.244 5.953 2.7.5 6.284-.707 8.144.307-.6.066-1.209.178-1.815.286 1.749-.185 3.476-.327 4.479.606-4.72.428-9.568 1.09-14.191.885l-.244-.484a1.58 1.58 0 0 1 .355-.237l-6.583.167-.24-.484 8.2-1.264c-9.447 1.32-18.287-.954-27.744.373l-.244-.491 4.124-.627-8.638 1a1.568 1.568 0 0 1 .94.449c-11.662 1.71-23.637 2.668-35.686 4.128a30.289 30.289 0 0 1-5.577 3.553c-9.811 4.949-16.711 10.597-20.79 16.48C1.606 55.759.86 63.077 0 70.381c4.584 9.137 16.18 17.479 34.721 23.251 1.5.463 2.839.975 4.114 1.5 5.005-1.188 10.854-1.749 15.093-3.462l.251.477c8.8-1.393 18.3-1.776 27.622-3.2l-11.484.975-.244-.477-3.574.8-.491-.958c55.8-7.05 111.809-8.962 167.147-10.432l-2.146-.711q46.857-.914 93.494-.115l-1.843-1.017.815-.118c-.62-.212-1.3-.362-1.306-.836l2.466-.383-1.083-.362-77.14-.843-.24-.484c20.541-.432 41.886-.61 62.806-.317l103.191 1.508 17.667-.125c-15.138.042-30.161-1.163-45.324-1.076a100.076 100.076 0 0 0-19.276-.411c-1.985-.129-4.8-1.118-5.956-.376-7.245-.265-15.72.042-21.7-.815-10.119-1.3-21.645.745-30.907-1.48 18.754-.024 39.183-.1 56.265-.087l-33.143-.613-2.125-.707c40.406-.031 82.184 1.331 120.868 1.386-80.945-.924-161.314-5.171-242.807-3.142zM31.854 24.792c15.755-2.159 31.548-3.706 45.091-5.092l-.236-.483 4.347-.157-1.597-.52c-15.326 1.526-30.959 2.828-46.7 4.594a11.134 11.134 0 0 1-.905 1.658zm-.811 1.119a16.3 16.3 0 0 1-1.5 1.6c3.079-.359 6.36-.474 7.1-.8a.808.808 0 0 1-.77-.669l8.2-1.261c-4.503.179-8.777.608-13.03 1.13z"/><path d="M424.938 43.801c4.856 1.686 11.947.846 17.347.972l-7.611-.125c.132-1.755-8.116-.708-9.736-.847zM63.756 22.514l4.1-.63zm66.406-7.116l-10.885.373 9.816-.742zM61.908 89.923c-.484.24-.164.54-.042.78-.059.923-2.992-1.317-2.762.69-.982-.331-2 .132-3 .2.118-.362.7-.373 1.1-.435l-.77-.658zm64.067-72.33l8.461-.784zm18.363-3.082c-2.254.78-5.256.108-7.886.171 2.78-.941 5.267.013 7.886-.171zm46.846-2.021c-5.319 1.428-17.054.718-25.6 1.083l-.282.3c-6.127.3-12.557.035-18.256.745l-1.585-.54c15.162.038 30.627-2.215 45.723-1.588zm-96.29 75.2l-9.011.606 7.374-.355zm1.661-.262l6.8-.522zm11.99-.797l2.459-.387zm88.892-74.081c-.578.756-1.825.206-2.72-.091.477-.118 1.884-.508 2.72.091zm16.602-.467l-7.876.171 5.462-.585zm-9.113 8.167l9.248-.118zm37.141-8.857a58.278 58.278 0 0 1-16.322.188c5.469-.468 10.833.056 16.322-.188zm19.04-.066c-5.827-.4-11.53 1.3-17.677.122 5.577-.949 11.672.278 17.677-.122zm-13.055 16.057l-16.58-.307 12.787-.156zM272.815.421c-3.086-.226-8.092.641-10.861-.4 3.623.124 7.304-.311 10.861.4zm-22.973 18.366l-4.082-.153 3.02-.2zm4.856.809l-5.187.286 4.344-.167zm-8.812 54.69c-10.509-.024-21.157.226-31.847 1.017l.237.474-.017-.338 14.142-.1.014.341-14.954.223.817-.122c-3.674-1.69-7.69-.3-12.18-1.24 14.598.296 29.405-1.373 43.788-.255zm45.285-3.341l-76.116.286 60.1-.425zm-13.205-59.619c.794-.721-2.355 1.62-3.546.028zm3.901 8.5l-.031-.345 8.969.185.014.345c-6.876-.157-13.933.495-20.642-.463 3.919.56 9.366-.614 11.69.278zm-64.454 58.591zm64.614-51.328c-3.56.543-9.175-.575-13.856-.209zm3.543-15.627l-2.191.066 1.634-.254zm5.148-.285c-.815.383-2.717 1.028-3.8.338a14.785 14.785 0 0 0 3.8-.338zm-11.92 36.441c-2.814 0-5.6-.383-8.422 0l.244.474-1.658.254 1.658-.254-.244-.474-11.676-.275zm23.857-35.674l-2.72-.108 2.48-.373zm-17.343 19.84l4.09.153zm-2.515 6.367l4.9.031zm22.401-22.962l3.546-.031zM248.358 79.1l9.248-.118zm53.102-54.753l5.43.206zm14.745-6.705c1.268 1.163 4.323-.223 5.646 1.48-4.4.2-10.46.655-14.386-.383 2.913-1.097 6.577 1.582 8.74-1.097zm-19.753 14.25l16.037.125zm9.445-4.069c.035-.522-.683-.637-1.3-.843l11.662.286-1.648.258 2.145.71-15.741-.435c1.637.01 3.182.592 4.882.024zm.712 2.237l3.246.279zm4.18-2.202l2.476-.376zm-45.053 51.426l10.06-.247zm53.475-56.634l4.6.331zm15.556-.829c1.515 2.1 6.413 1 9.68 1.62l-15.727-.435c1.989-.136 4.385.073 5.984-.4-2.525-1.648-6.939-.32-10.265-1.014l12.491.157zm-66.133 59.62l7.865-.171zm59.804-63.332l3.509-.021zm-18.827 22.153l4.619.334zm23.077-20.736c-.958-.2-2.814.522-2.947-.571zm-50.984 56.258l4.051.157zm26.434-28.013l3.537-.031zm23.209-12.686h-8.433l1.644-.258-2.125-.7c2.083 1.5 5.991.722 8.914.958zm-50.936 44.28l2.459-.383zm10.224 1.799c-3.253.975-7.242-.01-10.868.383zm16.144-28.244l9.777.063zm-13.424 17.942l3.243.275zm2.79-1.47l2.187-.073zm4.121 9.764l.017.355-10.6.07-.038-.345 9.788.052zm8.652-20.321l8.13.307zm29.043-30.75l4.88.024zm-39.2 42.986l3.535-.021zm47.344-47.887l8.133.317zm-27.376 29.712l5.97.383zm82.307-25.442l-23.634-.254.251.484-2.985.209c1.278-.373-1.212-1.209-2.672-.888l.24.481c-6.973-1.526-17.131.439-23.589-1.052 17.055-.457 34.941.42 52.389 1.02zm-53.583.986l6.545-.223zm17.737 25.104c-11.4.672-25.964.091-38.845-.516zM328.059 51.2l29.082.47zm-22.736 24.842l16.552.307zm16.096-17.054l11.118.1zm-7.067 10.467l7.59.122zm15.41-14.09l39.364.69zm9.317-6.9l2.181-.073zm18.705-19.795l3.807-.331zM324.122 69.5l3.267.272zm-5.827 7.656l3.264.286zm51.357-46.933c-2.261.038-4.629.32-6.775-.254zm-8.266 2.041l18.458.54zm4.814-3.598l3.535-.021zm-3.563 6.016l13.55.516zM343.918 76.08c-5.288.373-10.213-.735-15.5.045a.792.792 0 0 0 .763.655l-2.163.073 1.637-.254-1.321-.829a95.759 95.759 0 0 1 16.584.31z"/><path d="M335.409 77.648c-.582-1.122-2.8-1-4.323-.641l5.183-.272c-.122.369-.718.369-1.118.428.488 1.226 2.762.192 4.027.94l-9.77-.052zm29.234-13.877l-9.488-.359h8.429zm-21.6 13.215l2.18-.08zm15.811-11.544l2.187-.08zm7.283-3.978l13.013.32zm9.168 17.058c-7.782.669-16.242-.536-24.445-.143 7.747-.275 16.312-.296 24.445.143zm-9.652-7.618l4.873.024zm35.278-25.469c-2.435.857-5.6-.272-8.429-.017zm-1.1 21.23a225.108 225.108 0 0 1-24.982-.307c7.948-.237 16.702.021 24.982.307zm-21.694 4.385c-1.08-.1-3.459 1.191-4.89-.017zm25.212-25.218l3.839-.331zM384.107 71.43l17.674-.118zm40.699-25.267l-16.016-.125 5.988-.415zm-4.839 9.596c-2.477 1.111-7.97.021-11.972.021zm15.702-3.992l-23.63-.254 5.162-.268zm-40.558 27.34l-7.6-.136 3.825-.327zm10.878-15.992l2.48-.376zm-9.683 13.986l3-.216zm26.615-20.767l3.825-.331zm9.258 5.082c-1.808.8 3.779.46 5.664.686-5.242.728-11.16-.575-16.859 0l11.439-.209zm.398-7.869l2.713.108zm-17.901 25.658a14.889 14.889 0 0 1-5.73.091zm29.674-16.549l2.989-.192zm8.412.007l4.891.021zm-8.781 17.479l-.822.122 2.146.714-7.632-.122c2.121-.104 6.19.526 6.308-.714zm1.874-4.971l13.856.219zm4.566-4.083l2.181-.073zM448 81.089l5.73-.1zm20.632.464l5.183-.286zm16.897-.792l2.125.711-2.163.08.289-.31c-.432-.676-2.529-.3-3.79-.46.122.237.439.533-.035.791 1.3-.362-1.191-1.2-2.668-.888l-.825.129 1.31.832-4.065-.153 1.637-.251-2.132-.714 11.143.108z"/></svg>