<svg xmlns="http://www.w3.org/2000/svg" viewBox="0 0 90 62.916"><path d="M59.416 42.294c-.082.2.369.348 0 0z"/><path d="M55.732 15.923l-2.417-.929c-.59-.176-6.086-1.069-4.812-.082-2.413-.647-9.476 2.9-10.437 4.707-.233.171-2.029-.654-2.091 1.2-1.333.507-1.656 3.152-1.072 2.71-2.346 1.36-1.688 2.419-2.413 4.8-.713.706-.682 4.542-2.091 5.223 1.282 2.67-1.586 3.159-.482 5.7.371 1.512-.8 2.972 1.338 3.267.642-.785 3.229 3.021 4.689 2.157l2.375 1.784c.182.562.973-.723 1.286-.727-.059-.028 1.667 1.012 1.479.765 1.427.2 1.181.86 1.986 1.211.13 1.156.342.946 2.392 1.068 1.46.587 3.076-.667 4.1-.643-.064.012.4-1.062.359-1.025 1.4 1.094.643.848 1.937-.334.339.056 2.671 1.136 3.372-.188a16.812 16.812 0 0 0 .876-3.373 1.574 1.574 0 0 0 .593.38 6.117 6.117 0 0 0-.529-1.577c1.385.022-.039.1 1.317-.271a6.539 6.539 0 0 0 1.654.32 3.085 3.085 0 0 1 .276.231c.028-.073.131-.153.385-.215a7.432 7.432 0 0 1 1.815-1.947c-.043-.008.78 1.222.767 1.206.015-.138.084-.191.2-.165-.033-.138-.459-1.582.05-1.6.274-.025-.049 1.006.515 1.1 1.091-1.344 2.792-4.591 2.944-6.37.529-1.372-2.192-4.572-1.158-5.607.871-.452 1.044-1.292 1.645-1.958-.338-.114-.788.118-1.154 0 .411-.839.05-1.116-.376-1.471a1.06 1.06 0 0 0 1.248-.514c-.141-.008-.191-.066-.147-.191-.282-.07-2.015-.061-2.018-.315-.022.054.435-1.043.414-1-.37-.175-1 .429-1.261.2-.545-.718 2.213-2.1-.958-1.164 1.4-3.431-.279-1.533-1.314-2.69-.299-2.643-2.795-5.371-5.282-3.673zM47.829 62.866c.122-.083-.752-.774-.026-1.313.7.342 1.478 1.631.026 1.313M.02 40.381a2.165 2.165 0 0 1 2.235-.33c-.129.192-2.493 1.009-2.235.33M89.392 47.62c-.048-.478-.789-.315-.021-.761 1.024.5.625 1.329.021.761M35.479.643c1.09-.833.767-.882 0 0"/></svg>