<svg xmlns="http://www.w3.org/2000/svg" viewBox="0 0 192.057 200"><path d="M0 102.091l.753-.9v.3c.38.376-.679.826-.753.6zm.377-5.8H.151v-.9zm0 10.23c-.226-.072-.226-.3-.226-.523h.377c0 .224.078.451-.151.523zm1.588-22.677v.3h-.149c-.378.378-.985.827-1.437.378-.076-.823 0-1.572.906-1.8v1.42zM.911 89.037c-.077.223.15.6-.153.747-.147.074-.3-.073-.375-.223zM.753 111.96c-.225-.3-.451-1.119.153-1.119.455.371-.077.895-.153 1.119zm.153-25.735v.9H.753c.071-.301-.147-.752.153-.9zm.378 31.082c-.455-.223.152-1.044-.531-1.044.531-.6 0-1.2.153-1.8 1.135.749 0 2.171.378 2.844zM2.57 78.64a.627.627 0 0 0-.605.226c.3.819.757-.3 1.136.3.071.375-.154.521-.379.748l-.528-.526c-.152.152-.458.227-.379.526-.153.3-.153.672-.758.523.455-.75.077-2.471 1.513-2.172v.376zm186.78 36.397a1.859 1.859 0 0 1-.153.9l-.377-.371c.378.07.229-.452.53-.529zm-18.874-95.02l-.19-.264a.6.6 0 0 1 .19.264zM126.061 185.3c1.616-1.494 4.854-1.377 5.2-3.334 3.7-1.041 6.129-3.346 9.717-4.383a2.677 2.677 0 0 1-.234-1.382c3.585.575 3.007-4.378 6.707-3a36.146 36.146 0 0 1 7.745-6.686 178.488 178.488 0 0 0 19.652-22.933c-.922-1.728 1.734-2.191 2.543-3.345 1.273-2.073 1.85-4.724 3.816-6.335.349-1.15-.346-1.384 0-2.188.228.344.579.228.927.228 1.041-2.88 2.308-3.916 3.236-6.914l-.812-.809c-.226.342-.455 1.037-1.034 1.037-1.272-1.495 1.154-2.187 1.034-3.574l.812.346 1.156-3.341-1.382 2.424c-1.276-1.385.462-3 .226-4.613.931-.35.579-1.728 1.735-1.959-.109-2.075 0-4.146 1.388-5.873a.9.9 0 0 1 .385.1c.788-1.427 3.424-2.191 2.04-4.483l.582-.575c1.153-9.8.229-20.052-.23-29.045l-.351.351c.235-2.542-1.507-4.267-.808-6.916-1.273-1.16.346-4.155-1.964-4.731 1.265-1.5-.928-3.34-.231-5.3a48.591 48.591 0 0 0-2.545-4.951c.116-1.5-1.037-3.805-2.194-5.534-.577-.8-1.272.695-1.619-.575l1.388-.807-1.158-.809.348-.229a13.27 13.27 0 0 0-4.51-6.917c-1.272 1.5 2.428 3.111 1.965 4.956.346.121 1.044 0 1.157.808l-.575.578 1.037 1.385c-2.543.342 1.157 3.34-1.849 1.61-3.471-2.538-3.237-7.265-7.282-8.526-.809-1.385-1.5-2.538-3.009-3.118.7-.346 1.272-2.534-.578-2.994l-.806.23c-1.741-.69-.811-3.8-3.122-3.8.577.229.23.692.346 1.036l-.346.346c-2.777-2.191-.574-5.3-4.393-6.335l-.234.229-.577-.578.234-.232-.546-.771a.67.67 0 0 1-.032.427l-2.429-.233c1.038-1.378-.465-2.417-1.969-2.763-.345-.805 1.852-.693.229-1.153-.462 0-1.039.919-1.616 1.384-1.619 4.033 4.394 4.033 4.972 6.914a1.464 1.464 0 0 1 .813 2.531c1.156 0-.236.692.578.809.577-.229 1.5.346 2.194.579 1.964.805-.582 2.534 1.39 2.992 3.118-.458-1.039-2.187.574-3.571 2.544 1.384 2.893 5.187 5.547 5.3-.114 3.228 2.778 1.614 2.549 4.726 2.768 2.763 4.041 7.265 6.357 9.917l.574.571c-1.039 1.616.811 3.57 1.391 5.183 2.775 9.22 5.78 19.015 6.13 28.589-.813.112-.813.916-.578 1.6 1.614.927.344 3.116 0 4.383-.351 1.151-1.39 0-1.739 1.385-.115 1.728 2.316.8 1.387 2.763a1.536 1.536 0 0 1-2.425-.8c.23 1.149.46 2.076 1.614 1.727-.116 2.076-1.96 3.229-1.614 5.19h-.584c-.807 1.378 2.315 2.419 0 3.108 1.62 1.267-1.73 1.728-1.963 2.649 1.27 0 1.156 1.389 1.156 2.307 0 1.961-2.433 3.346-1.156 5.528-.929.579-1.967.809-1.967 2.191.464 1.5.69 2.654-1.042 3.346.928 1.38-1.612 1.38-.808 3-1.5-.346-2.313 1.959-3.123 2.765a3.349 3.349 0 0 1-1.038 2.995 1.546 1.546 0 0 1-1.154-1.84l.224-.35c-.224-.23-.572-.691-1.034-.575-.926 1.037-.578 3-2.194 3.112-1.62-1.268 1.852-2.075.228-3.575-.582 1.156-1.5 0-2.2 0 1.391-.921 0-1.958.813-3.109.8-4.958 5.2-8.878 4.739-14.06 1.386-.576.809-1.733.574-2.766a1.051 1.051 0 0 1 .81-1.384h-.565l-.234-2.536c-.235.116-.46-.119-.574-.228-.355-.926.574-.575.809-.807.694-.808.694-2.765 2.193-2.539-.81-1.15-1.967 1.27-2.772-.225.345-1.039.462-2.424.8-3.116a.95.95 0 0 1 .351.922h.228c0-.345.116-1.727-.8-1.727-.47-4.843 1.038-8.758-.234-13.028l1.038-.225-.578-1.613-.46.8c-1.27-2.188.234-4.49-1.387-6.337a33.933 33.933 0 0 0-4.161-12.8c-.23-.688-1.5-.571-1.735-1.38l.8-.23c-2.651-4.15-2.424-12.333-9.126-11.066l-.812 1.385c-1.159-1.612-2.774-2.421-4.163-3.571l.231-.347c-.231-1.382-2.662-1.038-2.2-3-1.037.464-2.309-.688-2.193-1.958-3.24-2.654-5.2-5.994-9.139-7.494-1.615-2.185-4.732-3.683-6.7-5.76-5.55-2.763-10.174-6.221-16.649-6.912-3 .575-6.469-2.537-8.9-1.382-2.433-.462-4.976-.116-7.4-1.385-.927-.458-1.739 1.038-2.318-.346.235-.112.349-.347.579-.228v-.578c-.921 1.732-4.738 1.266-6.355 2.191-5.32-2.191-9.246 3-14.452 1.958a25.888 25.888 0 0 1-8.554 2.191c1.39-1.844 6.241-.575 4.393-3.8-.579-.805-1.621-.234-2.2-.581 2.543-2.3 6.592-3.108 9.712-3.917a3.02 3.02 0 0 0-2.777-.809v.347c-2.891.807-6.36 2.772-9.483 3.229l-1.378 1.39.923.919c-3.815 2.195-7.052 4.725-11.095 5.191-2.081.344-3.585-4.151-6.129-1.385 0 .35 1.038-.808 1.39.35a2.828 2.828 0 0 1-3.127.458c1.159 1.5-1.846.462-1.616 1.958-1.85.575-4.045 1.268-6.125.575.459-.919 1.849-.458 1.734-1.611-1.5-.344-2.2 1.729-3.123 2.995-.577.807-.926.807-1.62.234.236 1.956-1.961 1.5-3.116 1.956a75.674 75.674 0 0 1-11.335 11.41c-.46-.235.582-1.5-.577-1.154.464 1.041-.692 2.079-1.038 3-1.272-.807 0-2.078.233-3 1.619-1.385 1.039-5.07 3.93-5.534 1.042-.805 1.851-4.031 3.816-3.34-1.038-2.88 2.887-4.148 3.581-6.109-2.772-.693-1.729 4.032-4.969 3.344.465-.922-.924-2.65 1.161-2.767.577-.688 1.152-1.845.577-2.765l-1.967 1.729.582.459-2.78 1.961 1.042.574c-.118.925-1.964 1.5-1.391 2.536l-.229.233c1.044-1.155 1.62-.579 3.006-.808-.577.808-2.542 4.953-4.392 2.19.58 2.188-1.5 1.958-1.734 3.916.23-.233.345-.459.574-.342l.577.575c-1.152.578-2.888 2.538-2.772 3.574l-.578.575.578.576.231-.346.577.576c-1.96.926-1.736 3.463-2.771 4.729.459.116.81.116 1.152.579.58 1.377-.924.688-1.387 1.036-3.004 5.413-5.664 11.06-8.893 16.132-.927 5.075-4.861 8.068-4.165 12.911-1.849 1.263-1.5 4.375-1.965 6.678-.346 4.725-2.081 8.532-.229 13.6-2.547 2.191 0 5.071-.814 7.955a1.233 1.233 0 0 0 1.391-.581c.578.581 1.039 1.847.233 2.188h-.589c.579.926 1.965.58 1.387 1.966-1.616.225.81 1.034-.226 1.723 2.076 1.5 1.612 4.037 3 6.337.233 1.385-.577 1.618.813 2.192l.574.578-1.039.807c.812 1.272 3.7.579 4.4 3.342l-.235 3c-.927.118-1.62-2.653-2.313-3.805-.923-.227 1.967 2.31 0 2.42.928 1.963 1.044 4.5 2.549 5.884 1.267 2.414 3.348 5.068 4.161 7.948 3.7 3.111 1.5 8.068 5.315 11.411 1.616 4.26 5.777 7.375 7.4 11.523.7 1.034 2.194 1.5 1.965 2.766 1.5 0 1.273 1.728 1.967 2.534l.224-.228a35.663 35.663 0 0 0 8.328 7.375c1.5 2.534 6.474 4.725 9.482 7.491 4.507 1.724 8.9 4.606 13.291 5.877v.463c2.084-.346 3.582 1.728 5.55.576 1.5 1.611 3.93.573 5.552 1.728 3.236-.23 6.129.344 9.131.459 1.967 2.075 3.817-.575 5.9 1.154 1.271-.693 2.311-.232 3.581 0v-.232l8.558-1.149c2.08.686 3.817-.119 6.131-.233 3.93-.466 6.468-2.538 10.285-2.538-.113-1.151 1.154-.112 1.39-.575 1.258-2.189 4.385-1.729 6.117-2.773zm-71.1-153.967c3.007-1.958 6.239-2.884 9.245-4.722 2.083-.118 4.048-2.078 6.593-1.961.808-1.268 1.732-.922 2.542-.578-1.734-.344-2.2 1.841-3.93 1.385-4.501 1.729-9.708 4.381-14.45 5.876zm103.241 20.976c-1.732-.117-.234-1.959-1.964-2.188h.579c.577.688 1.962 1.381 1.385 2.188z"/><path d="M190.105 110.997l-.225.15a1 1 0 0 1 .1-.831c.214.142-.312.436.125.681zm-20.178-91.745l.362.506c-.165-.146-.362-.284-.362-.506zM1.815 121.259c-.531-.225-.378-1.048-.531-1.649l.681.226c0 .451.232 1.051-.15 1.423zm.906-9.156c.226.529-.3.675-.757.675.152-.675-.454-1.719 0-1.946.077.451.077 1.123.757 1.271zm-.642 10.702a1.18 1.18 0 0 1 .033.164 1.254 1.254 0 0 0-.147-.091zm.032.567a.965.965 0 0 1 .231 1.331c-.308-.407-.17-.878-.231-1.331zm.082-.772l-.114.079a.988.988 0 0 0-.264-.451zm-.004-46.103c-.228-.453.908-.9 0-1.272a.86.86 0 0 1 .908-.9 7.319 7.319 0 0 1-.908 2.172zm.381 38.274c.832.226.6 1.2.908 1.8l-.756.149c-.078-.378-.678-1.723-.152-1.949zm.53 3.815c.224 1.052 1.282 1.949.678 2.7-1.209-.377-.455-1.874-1.058-2.7zm0 10.534c-.079-.151-.228-.222-.228-.374l.605.374zm-.228 1.795l.907.146-.3.375.526.525-.377.374c-.607-.373-.307-1.197-.756-1.42zm.755-7.052c.682-.451 1.663.826 1.813.9-.53-.449-1.89.298-1.813-.9zm.527 16.338c-.151-.451-.375-.972-.527-1.422.303.229 1.135.974.527 1.422zm-.15-14.216v-.226h.529c-.079.226-.301.226-.529.226zm.529 10.25l-.529-1.648c.15.226 1.136 1.128.529 1.648zm-.001-8.202l.908.149c-.226.226-.378.449-.755.374-.227-.149-.153-.375-.153-.523zm1.062 2.116a.57.57 0 0 0-.531.223l-.153-.75c.153.375.985-.151.684.527zm-.684 9.428c1.588-.6.6 1.876 1.968 1.052l1.132 2.021c-.151.075-.226.225-.375.15-.231-.675-.834-1.272-1.137-1.947l-.9.524zm1.058-6.937H5.82c-.226-.228-.077-.674-.38-.9a.708.708 0 0 1 .528.9zm.226 10.012c-.153-.075-.3-.148-.229-.3l.757.153c-.148.221-.372.147-.528.147zm1.589 6.291c1.662 0 1.208 2.173 2.038 2.547 1.739 2.174.758 5.393 3.629 6.141h-.6c-.381.6 0 1.047-.154 1.573 1.363.224.607.971 1.816 1.422-.075.975.377 1.873-.757 2.022l-2.118-3.069.3.374.6-.525c-.756-.375-2.114-.75-1.812-1.648-1.661-.074-.531-1.8-1.134-2.547a3.894 3.894 0 0 1-.908-1.948c-.6-1.569-2.567-2.994-1.812-4.642a11 11 0 0 1 1.661 3c.614-.751-.217-1.874-.749-2.7zm4.382 14.166l-2.342-3.222 2.5 3.07zm-.226 30.963l-.3-.375.531.149zm64.702 1.569a.832.832 0 0 1 .907-.3.557.557 0 0 1-.225.524l.755.675a10.547 10.547 0 0 1-2.191 0v-.3c.302-.373 1.282.228.754-.599zM23.58 183.663c2.643-.374 2.643 2.7 5.059 2.7.155 1.345 2.194.523 2.345 1.947l.606-.152c1.662 1.947 4.233 2.7 6.348 4.117l-.377.676c.377.225.907.675 1.283.225.078-.3-.3-.374-.376-.524.682-1.126 1.134.9 1.966 0 .071.225-.153.524.225.675 2.116-.823 4.006 1.123 6.121 1.421.832.152 2.417.374 2.721 1.5-.528.3-1.437-.748-1.969.15-.906-1.348-2.493-.451-3.472-.9-3.327-1.05-7.181-2.1-10.126-4.119-2.42-.225-4.234-2.545-6.576-3.222-.3-.747-.681-1.646-1.813-1.272-.757-2.1-3.853-2.021-4.158-4.118-1.133 0-2.417-1.648-3.1-2.7a12.952 12.952 0 0 1-3.778-4.494h.527v-.224h.908c2.117 3.144 5.292 5.469 7.636 8.314zM42.448 11.68l-.38.378c-2.039 1.123-3.473 2.469-5.436 3.594-1.214.822-1.214 1.795-2.192 2.846-.683 0-.912.824-1.588 1.271-.3-.971-.832.451-.906 0l.678-.521.228.146c.222.076.375-.223.53-.3-.076-.45-.984-.675-1.06-.6 1.361-1.2 3.553-2.173 4.532-4.124 2.572.3 2.27-2.618 4.16-3.368.832-.748.904.529 1.434.678zM23.733 24.488c-.075-.149-.23-.225-.152-.374l.527.149a.465.465 0 0 1-.375.225zm14.217-2.024c.222-.3.9-.523.377-.9 1.66-.525 2.188-2.771 3.473-2.7v.377c-1.962.153-1.361 3.45-3.85 3.223zm4.399-5.018l.531-.523.244.438c-.27-.271-.709.276-.775.085zm1.237.151l-.129-.237a.466.466 0 0 1 .129.237zm2.024 1.494c-.15.9-1.736 1.2-1.962 1.572.528-.82 1.057-1.717 1.962-1.572zm-1.315-2.018l.759.373-.379.378c-.155-.076-.531-.378-.38-.751zm1.571 0c-.018-.032.111-.112.288-.209a.764.764 0 0 1-.288.209zm.532-.207c.26-.3.077-.706.317-1.064 1.45.17.277.738-.317 1.064zm.632-6.234l.378-.374v.9zm4.188 4.119l-.526.523c-.605-.675-.835.6-1.439.377l.528-.527c-.224-.674-1.361-.3-1.434-.372l.151-.381c.982-.6 2.873-.522 2.95-1.795a4.994 4.994 0 0 0 3.248-1.273c.226 0 1.589-.6 1.436.374-.226.525-1.286.076-1.058.9 1.058.3 2.114-.375 3.1-.9-1.283 1.123-2.491 2.249-4 2.547l.152.524c-1.368-.819-2.124 2.023-3.108.003zm1.377-6.289c-1.585.374-2.569 2.394-3.929 1.27.905-.519 1.058-.219 2.115-.519l-.149-.227c.452-.446.6-1.42 1.435-1.42l-.154.147z"/><path d="M51.018 15.796c-1.132.448-.378 2.023-1.588 2.173l.531-.527c.074-.3-.228-.373-.379-.523-.074.15-.453.226-.379.523h-.528v-.373c1.063-.146 1.363-1.873 2.343-1.273zm3.503 3.825c1.135-1.572 2.118-1.2 3.251-2.549l-.681-.15c.681-1.123 2.266-.748 3.247-1.649l-.15-.15c.531-.823 1.74.077 2.116-.372 0 .9-.226.149-.676.9.225.074.146.3.146.524a.578.578 0 0 1-.907-.152c.078 1.05-1.662 1.2-2.495 1.8-.3-.6-.6-.152-.905-.225l.151.6c-.979.524-2.189 1.57-3.097 1.423zm-.165 174.597l-.53.226-.378-.6zm.043-187.406l.126.489a9.275 9.275 0 0 1-.354.109zm.291.49l.2-.061c-.056.059-.122.111-.176.17zm57.106-2.958a36.844 36.844 0 0 0-8.689-1.644 16.351 16.351 0 0 0-5.14-.525V1.8a93.529 93.529 0 0 0-16.625.527c-.6.823-1.965.073-2.418.374-1.131.074-2.266.823-3.249.748-2.266.971-5.515 1.5-6.878 3.07a14.969 14.969 0 0 0-2.921.726 10.416 10.416 0 0 1 4.585-2.224c.3-.3.679-.823 1.057-.3.383-.9 1.814-.673 2.344-.9a18.729 18.729 0 0 1 2.567-1.5c2.424 0 3.857-1.35 6.346-.9.455-.976 1.062-.15 1.592-.9C86.932.9 90.487.372 93.284 0c1.511 1.5 3.852.226 5.592.748L97.666 0l3.628.748c.6.9 1.51-.223 2.116.148 2.341-.3 3.778 1.724 5.819.75.528.524 1.357.449 2.044.675.071.749 1.206 1.422.523 2.023zM55.519 20.517l-.227-.523c1.134-1.124 2.645-.746 3.851-.6-.831.9-2.341.45-3.624 1.123z"/><path d="M117.908 10.409c-.3.374-.832.074-1.133.374l.378-.374c-.454-1.724-2.721.522-2.344-1.2l-1.961.3.147-.152c-.147-.375-.53-.972-1.056-.748-.985 1.052-2.118-.521-3.476 0-.078-.447-.152-1.644-.907-1.8-.3.226-.075.6-.153.9-.982-.225-1.964-1.794-2.718-.521-1.439-1.273-3.176.3-4.236-.523-3.626.744-5.892-2.848-9.368-1.275a9.481 9.481 0 0 0-4.536.372c-2.039-.3-3.248 1.2-5.139 1.274-.983.9-2.943.373-4.157 1.424-1.963 1.2-4.381 1.12-5.815 2.844-1.515-1.871 1.131-1.645 2.189-2.324a33.75 33.75 0 0 1 4.913-2.468.91.91 0 0 0 .377.9c.378-.071.831.151 1.06-.221l-1.06-.675c1.511-.9 4.458.675 5.972-1.274 2.719.151 4.61-1.8 7.254-.748.982-1.347 3.553-.148 4.91-.527.531.228.759-.82 1.286-.147a49.209 49.209 0 0 1 8.462 1.048c-.149 0-.375-.074-.527.151 2.114.971 4.609 1.047 6.577 2.021 1.207.225-.078 1.272.3 1.8 1.357 0 2.719.6 4.23.674-.225.596.379.744.531.895zm-54.264 6.664h.376a2.486 2.486 0 0 1 .908 1.274c-.908.375-1.361-.3-2.344.15-.076-.898 1.436-.898 1.06-1.424zm-1.26 180.368l1.29.6h-.528c-.381.001-.986-.075-.762-.6zM66.755 9.883c-1.056.672-2.488 1.648-3.4 1.424zm-.062 6.295v.375c-.379.075-.982.672-1.286.148zm-.501 182.162v-.149l.527.149zm3.846.371c.607 1.2 1.74-.149 2.569.524-.983.9-2.717-.074-3.626-.524.377-.145.527.3 1.057 0zM68.957 9.733c-.075-.222.3-.375.532-.375v.375zm1.241 4.641c.982 0 1.809-.82 2.717-.522a5.455 5.455 0 0 1-2.717.522zm1.225-1.571l-.378-.6a1.354 1.354 0 0 1 1.285.6c-.68.15-1.513 1.05-2.041.673zm3.486-.599c1.437-.824 2.8-.6 4.158-.9-1.211.675-3.099.675-4.158.9zm1.777 187.788c-.227.074-.378-.225-.531-.377l.758.225zm4.369-182.547h-1.664c.68.078 1.207-.9 1.814-.373-.075.15-.229.23-.15.373zm.496-3.741l-.908.523-.9-.375zm-1.237 182.314h.757c-.153.375-.531.15-.757.226z"/><path d="M82.113 11.156c.226-.225.15-.972.753-.747.454.9 1.059-.15 1.816.223-.983-.082-1.74.899-2.569.524zm1.679 3.218v.229a1.816 1.816 0 0 0-.908.152zm57.321 174.259a5.145 5.145 0 0 1 .834-.462 2.509 2.509 0 0 1-.834.462zm3.511-1.228l-.607.52a3.022 3.022 0 0 0-1.234.245c.601-.445 1.147-.992 1.841-.765zm-41.11 7.56c.684-.07 1.59-.672 2.042-.222l.151-.9c.755 1.424 1.741-.375 2.95.226 1.437-.675 2.8-.151 4.537-1.125 2.417 1.347 4.229-1.571 6.647.225.754-.076 2.04-1.2 2.721-.748 3.1-1.123 6.951-2.623 10.2-3.746a1.375 1.375 0 0 0 .429-.044c-1.319.87-2.49 2.2-4.282 1.844a57.421 57.421 0 0 1-13.752 4.266c-1 .569-2.275-.27-2.793.717-.672-.366-1.527.181-1.892.181-3.478.075-7.56 1.424-11.487.9a7.411 7.411 0 0 1-3.78.226c1.813-2.769 5.592-.673 8.309-1.8z"/><path d="M108.981 195.642a1.817 1.817 0 0 1 .079-.181c.024.015.049.016.074.034zM86.85 15.274a.93.93 0 0 0 .378.9l-2.192.375.607-1.05.15.151c.378.001.833.075 1.057-.376zm.365-1.272c0 .372-1.356.15-1.432.225.454-.075.984-.673 1.432-.225zm-1.095-3.593h.9l-.153.223c-.22-.077-.747.151-.747-.223zm2.976 189.579h-.531v-.15zm.748-185.985l-.377-.15.905.15zm.909-3.892h1.435v.147h-1.435zm1.399 5.389l-.756-.6c.378-.075.905.077.756.6zm1.861-.377h-.682V14.9zm14.459-4.491v.524a530.887 530.887 0 0 0-9.6-1.045 1.749 1.749 0 0 1 2.566-.228c-.148-1.2.908-.672 1.439-.672l-.909.523c1.36.6 2.192-.971 3.251.526 1.061-.227 2.199.291 3.253.372zm-11.165 1.071a2.842 2.842 0 0 1-.912-.171 1.007 1.007 0 0 1 .912.171zm6.773-.023c.984.674 2.947 0 3.252 1.274-1.289.375-2.194-.749-3.63-.375-.377-.076.228-.748-.529-.522-.377.9-1.362-.3-2.042.373-.741.149-1-.409-1.428-.727 1.42.083 3.146-.511 4.377-.023zm-6.059 1.648l.527.149h-.527zm7.4.376c-.226.073-.53.523-.758.15v-.15zm.731 184.487l-.379.375-.679-.375zm4.916-183.817c-.38-.073-.911.152-1.286-.147.376-.225 1.133-.374 1.286.147zm6.604.001a44.392 44.392 0 0 0-5.589-1.272c1.732-.448 4.075.374 5.589 1.272zm5.112 2.548l-3.1-.523c-1.437-1.348-3.324-.9-4.912-2.026 2.949.152 5.743 1.729 8.012 2.549zm14.999-1.271a1.8 1.8 0 0 0 1.058 2.173 38.293 38.293 0 0 1-4.856-2.55c1.618-.117 2.156 1.04 3.798.377zm-14.851-2.698c-.454-1.5-2.416-.749-3.249-1.274-.755-.674-1.812.75-2.19-.524.526-.074 1.057-.3 1.057-.9.679.525 2.27-.451 2.194.9 1.055-.448 2.111 1.721 3.1.15.606.374-.454.751.153 1.124a1.263 1.263 0 0 1 1.505.146c.291 1.381 3.206 1.566 4.213 2.6-.144-.1-.294-.18-.432-.277-2.496.001-3.705-2.096-6.351-1.945zm9.057 2.223c.049.03.1.063.15.1h-.055a1.329 1.329 0 0 0-.095-.1zM114.98 16.55l.907.148c-.304.524-.605-.073-.907-.148zm2.089-11.683v.525l-.754-.375zm1.789 191.526c-.154.523-.832.374-1.06.374.078-.45 1.06-.374 1.06-.374zm-.226-179.32l1.131.373h-.377zm10.171-.375a11.5 11.5 0 0 1-2.571-1.2c-.678-.748-2.647.377-2.5-1.272 2.344.3 4 2.173 6.35 2.471 1.36.825 2.874 1.8 4.158 2.55-.832-.077-1.662-1.351-2.721-.75.3.524.832.9 1.06 1.5a3.433 3.433 0 0 1-2.191-1.274l.378-.526c-.529-.751-1.585-.751-1.963-1.499zm-7.84 1.125l.529.674h-.375c-.303-.077-.077-.448-.154-.674zm4.136.675c1.279.6 3.019 1.422 3.623 2.4a10.344 10.344 0 0 1-5.292-3.071c.531.222 1.362.146 1.669.671zm-2.888 173.024h1.134l-.755.526c-.078-.145-.379-.224-.379-.526zM123.598 6.14c.606-.525 1.134.375 1.813.375l-.377.523c-.757.15-1.057-.523-1.436-.898zm3.68 2.17c-.6-.149-.377-.522-.68-.9 1.511.677 3.553.9 4.687 1.8a3.885 3.885 0 0 1-3.248-1.122c-.228.074-.608-.152-.759.222zm1.399 9.886h-.906l-1.437-1.123zm2.113-13.329l-.154.525-.378-.375-.755.6-.531-1.271c-.377.447-.755-.15-1.054-.226 1.358-1.424 1.51 1.121 2.872.747zm6.929 1.8l-1.585-.75c0-.6.531-.975 1.281-1.05-.072.973 1.591.226 1.44 1.421l.9-.523c-.451.375.078.751.151 1.048a1.811 1.811 0 0 0 1.284-.3c.679.152.607.675.531 1.047a8.189 8.189 0 0 1 3.475 1.047l-.227.226 2.042 2.17c-1.964-1.047-5.141-2.245-6.724-3.816-.978.224-1.582-1.047-2.568-.52zm11.05 10.739l-.24.192c.057-.166.142-.21.24-.192zm3.098.04a.29.29 0 0 1 0 .527c0-1.2-1.513-.527-1.815-1.275l.155-.148c-.534 0-.984-.75-1.439-.375l1.439 1.424c-.4.506-.887-.135-1.2-.192l.138-.107c-1.434-.3-.378-1.648-.906-2.176-.681.376-1.361-.6-2.041.15-.756-.15-.605-.9-.909-1.421l-.372.375-.531-.523c-.454.226-1.813-1.2-1.813.3-.379.074-.529-.674-.909-.149a1.23 1.23 0 0 1 .909-.9c-.605 0-.756-.749-1.286-.523-1.057-.373-.6-1.2-.9-1.8-.154 0-.379-.077-.533.15l.226.223c-1.207.973-.832-1.124-1.659-1.5 2.49.523 3.853 1.87 6.346 2.92.076.75 1.133.673 1.665 1.046.3-.148.073-.6.146-.9h.379a1 1 0 0 1 .38.9.63.63 0 0 0-.607.227c.755 1.2 3.25 1.348 2.947 2.1l.15-.15c.078-.151-.076-.225-.15-.377.832.3.907.825 1.589 1.276l.376-.375.909.9c-.455.076-.759-.523-1.285-.15zm-15.884-4.644c-.6.525-1.212-.523-1.591-.6.608-.522 1.061.377 1.591.6zm-1.037 9.288l.909.6h-.532c-.147-.225-.449-.299-.377-.6zm1.936 1.497l.375-.6c.455 0 .758 1.124 1.212.6l.754.9-.375.3c-.607-.449-1.512-.374-1.966-1.2zm-.116-14.077h.53v.222h-.53zm1.944 12.058c-.378-.376 0-.9.222-1.275l.687.6c-.832 0-.454 1.2-1.059 1.2-.454-.302 0-.302.15-.525zm-.033 134.865c0 .227-.3.377-.526.377v-.377zm2.174-2.112c-.452.152-.229.6-.531.9-.377-.291.001-1.042.531-.9z"/><path d="M141.084 10.783v.369l-.683-.373zm.342 10.409l1.812 1.125h-.6c-.002-.9-1.212-.525-1.212-1.125zm.545 2.395h-.6c-.077-.222-.383-.3-.3-.6zm2.699-3.07l-1.511-1.269c.753-.152 1.355.672 1.511 1.269zm-.82 2.848c.683.45.909 1.048 1.815 1.123-.984-.149-.078.747-.906.673-.755-.375-.605-1.199-.909-1.796zm.096 3.219l.592.589c-.292-.15-.645-.17-.592-.589zm1.102.895l-.311-.309a.592.592 0 0 1 .311.309zm.839-10.406c-.3-.523-.832-.447-1.284-.672.68-1.2 1.059.672 1.661.3zm.205 8.835c.38-.449.907.228 1.059.527-.454.149-.756-.222-1.059-.527zm2.568 16.467c.378 1.05 1.433 1.2 1.963 2.323-1.284.151-1.813-1.572-1.963-2.323zm1.832-19.91c1.132 0 .528 1.123.679 1.425-1.209-.3-1.509-.975-2.341-1.948.527.148.985 1.047 1.662.523zm.453 3.969c-.6.6-1.434-.375-2.19-.375.832-.6 1.358.448 2.19.375zm-2.553 159.55h.759v.149h-.759zm25.162-167.789l-1.287-1.123-.153.226c.153-1.349-1.735-.3-1.659-1.648-.455-.527-2.194-.3-1.588-1.424l-.759-.751c.228-1.347-2.191-.9-2.873-1.8-.15.076-.528.378-.373.75.827.75 2.037.673 2.341 1.944 1.437.075 1.284 1.725 2.72 1.8.377 1.125 1.661 1.5 1.812 2.172 1.141-.518 1.141.98 1.819-.146zm-6.5-4.719v-.373l.53.373zm-12.562 27.953c.078.151-.075.223-.152.374-.378.078-.528-.222-.755-.374-.455.151-1.361.374-1.058.9-.455-.3-.53-.75-.753-1.126 1.129-1.195 1.356.153 2.718.226zm.376-5.208c.683 1.128 1.739.076 2.346.9-.152 0-.38-.078-.531.15.759.822 1.209 2.918 2.947 2.17v1.274c-1.964.748-1.286-1.794-3.1-2.321.003-1.197-1.511-1.197-1.662-2.173zm-1.167 12.533c.53-.373.453.6.755.9-.529.077-.529-.671-.755-.9zm.771-3.514v.374h-.378c-.074-.076-.224-.227-.224-.374zm13.641-.535l.759-.227v.374c-.228-.075-.759.153-.759-.147zm1.131 3.249c.984.974.229 2.246.683 3.219-1.511-.075-.074-1.649-1.284-2.321l.755-.375zm1.816-4.227h.3v.523c-.075-.147-.373-.223-.3-.523zm1.439 2.069h-.229c-.153-.3-.531-.451-.531-.75a.577.577 0 0 1 .76.75zm-.53 3.192v.749a.424.424 0 0 1 0-.749zm2.115-.49c-.984-.074-.907-1.2-1.437-1.8zm2.041-26.18c.146-1.423-1.587-.077-1.814-1.274l.378-.375c-.3-.525-.227-1.2-.908-1.572l.531-.225c.452.377 1.585.9.906 1.647.6.15.531 1.123 1.287.527-.076.974 1.434.821.9 1.946-.376-.527-.826-.451-1.28-.674zm-2.042 17.703l.752.521c0 .9 2.12 1.723.528 2.321l-.378-.3c1.14-1.499-1.128-1.197-.902-2.542zm.758 11.143c-.3-.3-.752-.6-.526-1.05l1.055.149zm-.379 6.691h.755v.151h-.755zm.903-5.204l-.153-.521.379.521zm.531 8.443l-.3-.374.53.148zm.229 115.151l1.589-.523-1.442.751.38.3h-.38c-.001-.152.078-.376-.147-.528zm3.097-117.866l-.907 1.125c-.755-.9-.83-1.949-1.286-2.921zm-.226-22.086c.112.333-.229.95-.111 1.4a7.316 7.316 0 0 1-1.327-2.671h.154c.376-.224 0-.526-.154-.748l.53-.152a27.566 27.566 0 0 1 3.474 4.493c-1.586.223-.904-2.093-2.566-2.322zm-.111-9.508c.112.132.212.272.336.4a.6.6 0 0 1-.336-.4zm.111 21.792h-.383c-.676-.6-.146-1.047-1.054-1.572.605.149.983 1.048 1.437 1.572zm-.529 18.869l-.908.223v-.223c.299.076.832-.071.908 0zm.144 2.87c-.832.152-.222-.523-.146-.894.381.221.146.596.146.894zm-.296 50.546c.3-.448.83 0 .907.374zm.299 4.44h.607v.151h-.607zm1.816-72.665l-1.434-.375c.832.076 1.057-.672 1.434.375zm-1.434 19.121c.186.11.186.318.186.523zm.187.762l.193.525c-.193-.113-.193-.321-.193-.525zm.192 51.755l-.153-.675h.3c0 .226.229.751-.147.675zm1.28-60.024l.152 1.123-.53-.375-.378.674c0-.448-.378-.822-.525-1.2.455.228.832-.298 1.281-.222zm-.527 15.347v-.487a.524.524 0 0 1 0 .487zm.001-1.581v.789a.838.838 0 0 0-.753-.413zm-.378 37.341a4.838 4.838 0 0 1 1.056-2.171c-.601.977.68 2.171-1.056 2.171zm.679-46.701c-.152 1.348 1.964 1.874 1.818 2.921-.909-.148-.457.974-.909 1.424l-.153-.225c.604-1.425-.98-2.772-.756-4.12zm.604 39.168c1.89-.673 0-3.146 1.589-4.116l.379.9.906-.374c1.207.9-.755 1.2-.53 2.02-.453-.523.68-.975.152-1.5-.226.075-.6-.148-.68.226-.378.823-.984 1.948-.378 2.7l-1.131 1.047c-.078-.303-.458-.528-.307-.903zm.903 2.823l-.755 1.271-.153-.225c.836-.373-.374-1.346.908-1.046zm.533 4.631l-1.284 1.047c.076-.522.455-1.422 1.284-1.047zm-1.131-45.86v-.6l.225.6zm0 6.153c.755-.6.6.97 1.509.523.229.826 1.285 2.172.153 2.7-2.193.22-.753-1.874-1.662-3.223zm.225 81.555v-.15h1.059c-.375.074-.681.68-1.059.15zm.153-115.458h.906v.676h-.375c-.154-.225-.76-.225-.531-.676zm2.57 71.111l-.23.227c-.226.074-.3-.227-.528-.379l-.527.525c.375 1.273-.753.074-1.284.527l.531-1.2c.448.374 1.734-.822 2.038.3zm-1.817-54.411v.748h-.222c-.231-.147-.231-.82.222-.748zm.374 23.904c-.075.3.153.675-.226.9-.674-.226-.224-1.277.226-.9zm-.221 14.258a7.212 7.212 0 0 1 .226-3.07c.605 1.572-.226 1.497-.226 3.07zm-.153 2.499c0-.748.832-.9 1.437-.9.6-.074.15.974 0 1.423-.379.076-.227-.371-.53-.523l-.907.523zm.378-7.659l-.226-1.8c1.208.229.075.979.226 1.8zm.68 16.331v.826h-.527c-.531-.3.075-.977.527-.826zm-.156-45.579v1.049c-.3-.226-.152-.6-.375-.9zm2.349 10.69c-1.749-.447-.932-1.893-.906-3.158l.15.459c.148.751 1.363 2.099.756 2.699zm-.906-4.023l-.377-1.187a1.626 1.626 0 0 1 .377 1.187zm.756 81.724h-.606l-.3-.152zm-.378-46.604c-.15.075-.228-.078-.379-.148l.379-.374zm.907-26.091c.525-.077.453.675.15.9-.307-.15-.076-.6-.15-.9zm0 3.59l.525-.225c-.071.3.233.45.154.75-.451.224-.451-.378-.679-.525zm.908 1.731l-.228.6c-.3-.45-.528-.45-.679-.9zm.147 6.59a1.21 1.21 0 0 1-1.055-.526l.679.153.376-1.424zm.76 33.72h.526v.15h-.526z"/></svg>