<svg xmlns="http://www.w3.org/2000/svg" viewBox="0 0 21.631 21.631"><path d="M10.815 0a.832.832 0 0 0-.832.832v.143a.819.819 0 0 1-.673.816 8.672 8.672 0 0 0-.565.109.818.818 0 0 1-.928-.5l-.055-.13a.832.832 0 0 0-1.537.637l.055.133a.816.816 0 0 1-.307 1.009q-.245.152-.478.318a.82.82 0 0 1-1.05-.1l-.1-.1a.832.832 0 0 0-1.176 1.178l.1.1a.819.819 0 0 1 .1 1.05q-.166.233-.318.478a.82.82 0 0 1-1.011.309l-.132-.055a.832.832 0 1 0-.639 1.537l.13.054a.819.819 0 0 1 .5.928c-.042.186-.08.375-.11.565a.818.818 0 0 1-.814.673H.832a.832.832 0 1 0 0 1.664h.143a.819.819 0 0 1 .816.673c.031.191.066.379.109.565a.818.818 0 0 1-.5.928l-.13.055a.832.832 0 1 0 .637 1.537l.133-.055a.821.821 0 0 1 1.011.307c.1.163.207.323.318.479a.82.82 0 0 1-.1 1.05l-.1.1a.832.832 0 1 0 1.176 1.176l.1-.1a.818.818 0 0 1 1.048-.1q.235.167.479.32a.821.821 0 0 1 .309 1.011l-.055.132a.832.832 0 1 0 1.537.639l.054-.13a.819.819 0 0 1 .928-.5c.186.042.375.08.565.11a.815.815 0 0 1 .671.812v.143a.832.832 0 0 0 1.664 0v-.143a.819.819 0 0 1 .673-.816c.191-.031.379-.066.565-.109a.818.818 0 0 1 .928.5l.055.13a.832.832 0 1 0 1.537-.637l-.055-.133a.821.821 0 0 1 .307-1.011c.163-.1.323-.207.479-.318a.82.82 0 0 1 1.05.1l.1.1a.832.832 0 1 0 1.176-1.176l-.1-.1a.818.818 0 0 1-.1-1.048q.167-.235.32-.479a.821.821 0 0 1 1.011-.309l.132.055a.832.832 0 1 0 .639-1.537l-.13-.054a.819.819 0 0 1-.5-.928c.042-.186.08-.375.11-.565a.815.815 0 0 1 .812-.671h.146a.832.832 0 0 0 0-1.664h-.143a.819.819 0 0 1-.816-.673 8.672 8.672 0 0 0-.109-.565.818.818 0 0 1 .5-.928l.13-.055a.832.832 0 1 0-.637-1.537l-.133.055a.821.821 0 0 1-1.011-.307 8.455 8.455 0 0 0-.318-.479.82.82 0 0 1 .1-1.05l.1-.1a.832.832 0 0 0-1.176-1.176l-.1.1a.82.82 0 0 1-1.05.1q-.235-.167-.479-.32a.82.82 0 0 1-.307-1.011l.055-.132a.832.832 0 1 0-1.537-.639l-.055.13a.819.819 0 0 1-.928.5 8.807 8.807 0 0 0-.565-.11.817.817 0 0 1-.671-.814V.832A.832.832 0 0 0 10.815 0zm0 4.16a6.653 6.653 0 0 1 6.6 5.824h-5.162a1.664 1.664 0 0 0-1.438-.832L8.233 4.68a6.632 6.632 0 0 1 2.582-.52zM6.8 5.518l2.579 4.465a1.649 1.649 0 0 0 0 1.661L6.8 16.111a6.638 6.638 0 0 1 0-10.593zm5.458 6.129h5.159a6.654 6.654 0 0 1-9.181 5.3l2.58-4.472a1.664 1.664 0 0 0 1.439-.828z" fill="#fff"/></svg>