<svg xmlns="http://www.w3.org/2000/svg" viewBox="0 0 90 62.916"><defs><style>.a{fill:#292422}</style></defs><path class="a" d="M59.416 42.294c-.082.2.369.348 0 0z"/><path class="a" d="M55.732 15.923l-2.417-.929c-.59-.176-6.086-1.069-4.812-.082-2.413-.647-9.476 2.9-10.437 4.707-.233.171-2.029-.654-2.091 1.2-1.333.507-1.656 3.152-1.072 2.71-2.346 1.36-1.688 2.419-2.413 4.8-.713.706-.682 4.542-2.091 5.223 1.282 2.67-1.586 3.159-.482 5.7.371 1.512-.8 2.972 1.338 3.267.642-.785 3.229 3.021 4.689 2.157l2.375 1.784c.182.562.973-.723 1.286-.727-.059-.028 1.667 1.012 1.479.765 1.427.2 1.181.86 1.986 1.211.13 1.156.342.946 2.392 1.068 1.46.587 3.076-.667 4.1-.643-.064.012.4-1.062.359-1.025 1.4 1.094.643.848 1.937-.334.339.056 2.671 1.136 3.372-.188a16.812 16.812 0 0 0 .876-3.373 1.574 1.574 0 0 0 .593.38 6.117 6.117 0 0 0-.529-1.577c1.385.022-.039.1 1.317-.271a6.539 6.539 0 0 0 1.654.32 3.085 3.085 0 0 1 .276.231c.028-.073.131-.153.385-.215a7.432 7.432 0 0 1 1.815-1.947c-.043-.008.78 1.222.767 1.206.015-.138.084-.191.2-.165-.033-.138-.459-1.582.05-1.6.274-.025-.049 1.006.515 1.1 1.091-1.344 2.792-4.591 2.944-6.37.529-1.372-2.192-4.572-1.158-5.607.871-.452 1.044-1.292 1.645-1.958-.338-.114-.788.118-1.154 0 .411-.839.05-1.116-.376-1.471a1.06 1.06 0 0 0 1.248-.514c-.141-.008-.191-.066-.147-.191-.282-.07-2.015-.061-2.018-.315-.022.054.435-1.043.414-1-.37-.175-1 .429-1.261.2-.545-.718 2.213-2.1-.958-1.164 1.4-3.431-.279-1.533-1.314-2.69-.299-2.643-2.795-5.371-5.282-3.673zM34.346 44.31c.076.28.148.543 0 0"/><path class="a" d="M55.4 43.276c.172.048.2.106.168.259-.147.192-.411-.092-.168-.259zM58.459 41.866c.542-.608.29-.252 0 0M35.329 25.021c1.483-.022-.037.088 0 0M34.413 24.688c.492-1.048.161.167 0 0M35.75 22.156c.656-1.138.187-.257 0 0M64.386 33.875c.093.311.1.31 0 0M65.523 34.241c.2.038.068.587 0 0M39.943 19.747c.267.506-.146.17 0 0M42.656 17.82c.222.024.179.865 0 0M14.864 54.992a18.561 18.561 0 0 1 1.448-1.361c-.524.418.886 1.855-1.448 1.361M10.6 46.988c.187-.6.923-.14.8.088-.236.543-.922.191-.8-.088M47.829 62.866c.122-.083-.752-.774-.026-1.313.7.342 1.478 1.631.026 1.313M18.469 42.542c-.355-.126-4.042 1.445-3.045 2.465-.316.655-.114 5.98 3.9 4.958.756.353 4.325.136 3.55-.94 2.8-1.995.619-2.337 1.758-4.465-1.094-.917-2.846-1.568-3.777-2.386M26.091 52.352a5.432 5.432 0 0 1 2.216-1.9c1.019.221-2.557 3.691-2.216 1.9M28.8 52.968c.056-.27.652-1.173 1.158-.931.134 1.26-.346 1.284-1.158.931M.02 40.381a2.165 2.165 0 0 1 2.235-.33c-.129.192-2.493 1.009-2.235.33M52.623 61.847c.144-.115-.8-.844-.308-1.257 1.3.731.344 1.01.308 1.257M25.45 49.893a2.1 2.1 0 0 1 .683-.949c.832.174-.343 1.221-.683.949M29.339 48.726a7.171 7.171 0 0 1 1.587-.927c-.078.316-1.708 3.086-2.386 2.44.268-.5.533-1.009.8-1.513M47.851 57.09c.08-.21.619-1.339.708-.185-.542 1.452-.281.619-.708.185M8.085 37.3c.269.019.883-1.167 1.141.122-.227.745-.985.172-1.141-.122M38.452 48.713c-.081.066-.251-.914-.137-1.121.083-.014 1.152.5 1.078.72-.274.3-.36.8-.941.4M47.786 51.709c0-.024.765-2.314.621-2.088 2.628-.487-1.178 3.788-.621 2.088M22.9 40.95c-.431.338 0-2.931.568-3.613 1.689-.97 3.545-.279 3.666 1.224.531.106-1.347 5.3-4.234 2.389M16.929 36.862c.577-.321 3.365-1.505 4.14-.943-1.057.861-3.2 1.855-4.14.943M54.8 49.916a1.909 1.909 0 0 1 .613-1.039c1.49.049-1.152 2.268-.613 1.039M24 35.081a.872.872 0 0 1 1.26-.2c-.041.121.006.183.14.187-.212.5-1.569.511-1.4.01M5.869 26.568c.106-.975 1.831-.765 1.98-.072-.623.465-1.235.116-1.98.072M58.331 46.914c.269.032 1.087.121 1.064.526-.518 1.132-1.24-.679-1.064-.526M58.215 45.994c-.249.194-.032-1.059-.009-1.128 2.262-1.375-.825 2.135.009 1.128M79.791 54.759c.308-.9-1.147.047.122-1.374-.267-.451-1.195-.289-.783-1.275 1.876-.253 2.253 3.064.661 2.649M69.877 50.322c-.19.145-.658-2.993-.639-3.142.6-.016 3.368 3.246.639 3.142M29.869 27.993c.32-.035.332-.494.88-.048-.316.537-.613.555-.88.048M70.6 42.549c.323-.459-1.052-2.016.785-1.368 1.888.653-.005 1.227-.785 1.368M65.311 37.633c.1-.526.966-.087.867.195q-.235.725-.867-.195M89.392 47.62c-.048-.478-.789-.315-.021-.761 1.024.5.625 1.329.021.761M31.195 17c-.065-.2-.8-.525-.953-.724.165-.654.96.708.953.724M68.638 26.518c.619-1.72 1.252.735 0 0M66.216 23.535c-1.266-1.905 3.939-1.81 0 0M40.1 12.1c.03-.027-.194-1.305.723-.675.142-.105-.153 1.376-.723.675M42.462 9.466c.414-.382.979-4.18 1.752-.562.4 1.833-1.011 2.266-1.752.562M45.919 11.653c-.664.531.987-3.26 1.038-.354-.164.267-1.121.531-1.038.354M37.27 4.036c.082-.034.2-.913 1.146 0-.26.357-1.408.822-1.146 0M63.8 15.7c.058-.066 1.566-1.036 1.184-.17-.406.449-.8.506-1.184.17M35.479.643c1.09-.833.767-.882 0 0M48.6 5.666c.375-.406.265-.759.65-.087-.134.584-.353.614-.65.087M79.26 11.486c1.52-1.229 2.144-.737 0 0M58.827 41.966c.256.187.379.279 0 0"/><path class="a" d="M29.955 52.038c.437-1.581.551-.691 1.028-1.6 1.288.828-.661 1.261-1.028 1.6"/></svg>